<svg width="176" height="145" fill="none" xmlns="http://www.w3.org/2000/svg"><path fill-rule="evenodd" clip-rule="evenodd" d="M169.564 103.24c-5.33-1.231-11.767-2.127-18.936-2.777.067-3.15.196-9.38.218-12.191.088-12.49-17.296-12.559-17.392.855a1489.14 1489.14 0 00-.018 10.243 636.734 636.734 0 00-12.339-.39c.06-5.397.124-11.265.139-13.18.072-10.364-11.873-12.168-16.002-4.824L96.14 60.993c37.23.187 64.417 4.552 79.11 12.564l-5.85 8.775.164 20.908zm-90.03-12.655c.003-3.995.003-10.55-.019-13.472-.095-13.411-17.478-13.345-17.39-.855.02 2.553.127 9.875.197 14.52a672.19 672.19 0 00-15.713.46c.002-3.947-.001-9.144-.02-11.655-.095-13.412-17.48-13.345-17.39-.851.017 2.386.112 8.962.183 13.602-8.329.756-15.63 1.829-21.737 3.36l.18-23.023-6.757-10.136c16.977-9.26 36.457-14.3 79.473-14.519L99.31 90.55c-6.837-.004-13.425.003-19.777.036zM7.667 49.487L7.825 30 .747 20.698C7.562 13.685 27.785 1.827 48.053.2l16.812 39.611c-20.556.697-42.518 3.586-57.197 9.675zm106.739 49.57l19.013 45.412-20.963-.081c.002-5.684.006-15.499-.018-18.531-.097-13.408-17.48-13.345-17.391-.851.02 2.608.13 12.938.201 19.312l-15.718-.059c.004-5.496.008-16.2-.018-19.388-.095-13.412-17.478-13.345-17.39-.855.02 2.732.143 13.912.213 20.173l-15.728-.063c.003-5.762.003-14.046-.018-16.784-.096-13.411-17.48-13.345-17.392-.851.018 2.38.112 11.198.184 17.568l-21.678-.085.342-29.224-5.284-8.588c23.21-7.481 62.787-7.13 111.645-7.105zm59.346 12.309l-4.542 7.38.299 25.291-18.862.31c.072-5.013.183-13.102.201-15.691.074-10.468-12.121-12.202-16.129-4.595l-7.64-18.347c18.09.691 35.383 2.233 46.673 5.652z" fill="#000"/></svg>