<svg width="198" height="164" fill="none" xmlns="http://www.w3.org/2000/svg"><path fill-rule="evenodd" clip-rule="evenodd" d="M189.088 163.796c-1.031-15.174-33.635-16.976-19.219-43.441l11.281-3.937c18.504 5.019 22.493 31.03 7.938 47.378zM127.985 3.119l6.1-2.504s42.869 77.605 45.069 104.602l-14.996 5.762c-16.454-20.675-36.173-107.86-36.173-107.86zm-.902 79.036c3.379.063 6.524.103 9.438.124l12.297 37.656c-10.891 24.124-33.534 42.443-67.833 42.443-110.062 0-105.078-157.256-1.762-157.256 3.77 0 7.382.234 10.872.64 25.146 4.615 28.716 23.71 23.816 40.759-6.849 23.835-7.407 35.253 13.172 35.634zm-67.516 56.632c8.853-3.537 13.056-12.903 9.668-22.09-2.765-7.499-10.856-10.76-16.344-8.58-4.138 1.647-6.554 4.973-7.17 8.033-.31 1.546-.156 5.162 2.828 8.098 3.33 3.273 11.198-1.542 6.64-6.854.447-.394 1.401-1.215 1.92-1.674 1.047.32 3.119 2.003 4.048 3.857 2.287 4.57.064 9.749-5.481 11.794-7.61 2.806-13.612-3.796-16.011-8.493l-5.593 3.176c4.32 11.682 14.015 17.321 25.495 12.733zM31.39 82.699c-4.023 2.369-1.408 11.214 4.903 8.19.265.533.81 1.667 1.12 2.288-.58.928-2.742 2.494-4.772 2.91-5.006 1.026-9.434-2.459-9.974-8.345-.74-8.076 7.191-12.164 12.346-13.267l-1.618-6.225c-12.402 1.149-20.36 9.052-18.9 21.33 1.127 9.466 9.087 15.948 18.837 15.055 7.96-.729 13.203-7.7 12.517-13.564-.518-4.427-3.106-7.618-5.902-9.006-1.415-.702-4.948-1.488-8.557.634zm58.797-46.746C79.956 21.53 64.677 18.856 49.426 29.67c-11.758 8.458-11.73 24.716-4.34 34.621 7.499 10.048 19.267 12.821 30.105 4.788 8.376-6.208 8.736-16.153 3.085-24.15-4.611-6.527-12.736-7.276-17.472-3.75-3.571 2.662-5.042 6.5-4.846 9.616.101 1.575 1.186 5.027 4.828 7.09 4.066 2.298 9.81-4.29 4.543-7.895.299-.454.844-1.472 1.204-2.018 1.032.036 3.332 1.064 4.628 2.527 3.2 3.604 2.462 8.42-2.146 11.56-6.312 4.3-11.775 2.979-16.749-3.686-4.141-5.55-4.248-15.59 2.47-20.708 10.343-7.875 21.105-6.13 28.48 3.752 3.034 4.068 5.572 11.403 4.867 15.388 1.377.174 4.72.515 5.918.594 1.955-6.8-.272-16.452-3.814-21.447zm17.521 61.684c-17.13-4.784-25.238 21.058-6.991 26.154 16.668 4.655 24.057-21.389 6.991-26.154z" fill="#000"/></svg>