<svg width="168" height="180" fill="none" xmlns="http://www.w3.org/2000/svg"><path fill-rule="evenodd" clip-rule="evenodd" d="M164.407 34.125c-2.45 1.629-59.685 38.729-59.685 38.729L83.288 42.587S140.19 3.33 142.517 1.77c12.967-8.703 32.927 25.027 21.89 32.355zm-7.119-18.221c-6.808-11.794-16.6-6.353-9.346 6.21 6.626 11.475 16.128 5.538 9.346-6.21zM79.928 50.63l12.965 25.018-43.044 29.88-15.955-22.111 8.81-6.275-6.647-7.063-11.482 6.365-9.687-13.578L61.094 32.04l8.645 13.23-15.343 11.374 4.869 8.705 20.664-14.72zm-47.91 42.78L38.775 107l-24.728 17.611L.354 106.546l9.805-7.587 8.11 5.198 13.748-10.745zm64.515-5.53l43.704 86.878-9.576 4.426-31.813-53.725-21.056 1.203-33.646 51.962-9.295-2.898 38.233-73.935 23.45-13.912zm-2.838 90.82H81.677l-1.79-41.319H96.71L93.694 178.7z" fill="#000"/></svg>