<svg width="137" height="191" fill="none" xmlns="http://www.w3.org/2000/svg"><path fill-rule="evenodd" clip-rule="evenodd" d="M2.38 190.09L.275 175.804l37.758-16.219 9.274 25.069 22.516-14.842 21.471 15.469 9.152-25.487 36.54 15.679-2.349 14.164-132.257.453zm105.757-70.329l-9.03 6.69-3.272 21.933c-14.32 18.013-36.4 18.431-51.208-.384l-4.785-20.905-11.832-7.474 1.88-15.4c-10.858-6.184-18.131-15.54-18.131-28.048 0-13.85 8.073-10.121 26.204-6.167l61.613 1.028c19.68-4.285 25.37-10.453 25.37 3.798 0 13.135-7.482 22.856-18.601 29.232l1.792 15.697zm-56.81-.854l.521 20.54 5.029 1.219c9.187-6.968 17.522-6.968 27.23 0l3.794-1.045v-20.209l8.039-8.71-2.297-19.756-51.243-.679-2.349 19.86 11.275 8.78zM37.927.2h59.665l1.096 61.218-62.03-.244L37.928.2z" fill="#000"/></svg>