<svg width="158" height="160" fill="none" xmlns="http://www.w3.org/2000/svg"><path fill-rule="evenodd" clip-rule="evenodd" d="M81.772 159.488c-111.222 0-106.2-158.922-1.8-158.922 104.04 0 103.428 158.922 1.8 158.922zM79.864 11.24a81.001 81.001 0 00-14.976 1.368l1.908 10.926-22.86 16.2-20.07-1.242a67.168 67.168 0 00-5.274 8.712l4.212 39.402 12.384 15.912-12.708 18c11.322 16.578 30.834 28.296 58.914 28.296 40.428 0 62.37-29.088 65.556-60.498l-9.486-8.622-13.914-5.292-2.268 3.438 5.4 5.67 4.176.63 1.8 6.048-13.14 6.642-9-15.678-3.114 7.056 6.786 14.922 8.334 2.43-13.428 7.2L91.6 137.852l-14.868 1.17-3.258-14.4L75.94 103.4l-17.046-4.536L53.278 85.4l2.682-12.96 16.2-6.642 15.318 8.766 8.082-2.646 12.042 3.258 2.736-15.354-15.498-5.13-.18 10.008-9.846-.45-.846-10.584L71.8 56.348l.918-9.306-5.184-6.012 7.884-7.2 12.816 7.2 4.014-8.514 10.152-4.32 6.768 2.988 6.876-1.386 2.97-7.2C108.7 15.506 95.686 11.24 79.864 11.24z" fill="#000"/></svg>