<svg width="206" height="134" fill="none" xmlns="http://www.w3.org/2000/svg"><path fill-rule="evenodd" clip-rule="evenodd" d="M21.136 102.738c0-.162-1.242-76.734-1.026-86.022C20.362 4.53 23.89.66 34.51.66c8.496 0 122.76.198 133.668.432 12.42.252 14.202 6.102 14.202 17.388 0 8.226-2.232 83.034-2.232 83.034l-159.012 1.224zm20.268-49.014L41.53 79.5l13.626-.216L54.4 69.6l.162-23.94-14.076.882.918 7.182zm6.336-28.8c-9.954 0-10.422 15.138.18 15.138 9.684.072 9.738-15.066-.18-15.066v-.072zm35.316 2.286c-9.774 0-15.822 6.264-15.822 18.918v3.924l-6.228.486-.234 8.262 6.444-.108c0 10.638-.108 21.132-.108 21.132l14.076-.198-.828-8.478s0-5.922.108-12.6l10.512-.18-.234-9.99-10.242.792v-.216c0-8.838 1.188-10.404 6.336-10.404a7.703 7.703 0 013.6.828l3.366-8.406a15.677 15.677 0 00-10.746-3.69v-.072zm55.242-1.53l-2.07-9.18c-11.304-2.34-19.008 5.616-17.352 15.3 1.8 10.584-2.52 15.606-11.088 17.244v6.948c9 1.926 12.924 6.894 11.052 17.622-1.692 9.612 8.1 19.494 16.884 15.948l2.574-8.64c-14.904-1.17-.666-21.348-14.292-28.404 14.382-7.74-1.476-23.436 14.292-26.766v-.072zm-35.892 92.52c18.828 0 19.296-.414 19.296-7.92 38.214.288 75.438.522 83.916.522 0 8.424-2.664 21.024-16.992 21.024-15.462 0-152.118 2.106-169.002 2.106C2.74 133.932.4 122.664.4 109.326c3.762 0 41.616.27 82.512.594-.018 8.082.666 8.28 19.494 8.28z" fill="#000"/></svg>