<svg width="166" height="163" fill="none" xmlns="http://www.w3.org/2000/svg"><path fill-rule="evenodd" clip-rule="evenodd" d="M87.24 64.085c27.468 0 27.296 41.97.47 41.97-29.374-.002-28.045-41.97-.47-41.97zm53.102 80.499a24.654 24.654 0 01-4.637 3.276l-1.576-9.812c.063-.054.133-.1.196-.156 7.103-6.39 7.315-17.23 3.22-29.59-12.445 6.834-27.668 12.085-42.845 15.3a184.798 184.798 0 01-9.413 1.717c5.933 4.658 11.915 8.606 17.667 11.507 2.126-3.679 6.02-6.375 11.603-6.375 17.556 0 17.444 26.821.299 26.821-8.638 0-13.111-5.68-13.716-11.813-9.27-4.322-18.817-10.881-27.819-18.662-8.058.711-16 .842-23.414.253 1.832 14.368 8.06 22.945 16.022 25.539 6.883 2.243 14.319-.657 21.538-7.272l7.391 4.874c-9.747 9.691-20.644 14.562-31.718 10.955-14.2-4.624-20.622-18.295-22.032-35.183-16.837-2.883-29.602-10.195-32.429-23.528a28.282 28.282 0 01-.613-5.664c-12.323-5.042-9.787-25.719 5.688-25.719 16.414 0 17.38 23.442 3.425 26.491.033 1.024.096 2.043.304 3.028 1.815 8.56 10.536 14.067 23.316 16.59.092-7.626 1.038-15.663 2.588-23.657-17.535-25.263-26.577-53.212-10.72-67.47 8.96-8.053 20.485-8.784 32.653-4.977l-3.616 8.136c-10-2.602-17.943-1.03-23.019 3.534-9.898 8.899-5.707 28.087 7.42 49.06a172.965 172.965 0 012.553-8.67c6.67-20.479 17.902-41.902 31.426-54.526C77.719 10.81 82.214.851 92.955.851c17.554 0 17.444 26.821.3 26.821-3.19 0-5.8-.786-7.87-2.071C73.89 36.602 63.533 56 57.067 75.857a184.005 184.005 0 00-4.35 15.634 184.192 184.192 0 0011.206 13.706 181.236 181.236 0 0012.364 12.486 183.632 183.632 0 0016.577-2.734c15.141-3.208 29.961-8.325 41.509-14.726a106.875 106.875 0 00-3.137-6.366l5.324-8.453a125.969 125.969 0 015.258 10.13c10.447-7.376 16.508-16.013 14.562-25.205-1.967-9.283-11.126-14.884-23.74-17.543-.337 13.972-3.33 29.48-8.015 43.997l-10.343 2.936a196.445 196.445 0 001.791-5.222c4.761-14.617 7.722-29.892 7.986-43.029-13.473-1.375-29.437-.142-44.548 3.06-1.078.229-2.063.49-3.11.73l3.008-9.73c14.486-2.914 30.294-4.172 44.382-2.858-.86-9.844-3.684-17.807-8.991-22.32l1.609-9.788c10.206 5.69 15.047 18.102 16.06 33.307 16.78 3.105 29.765 10.665 32.717 24.597 2.873 13.561-5.796 25.6-20.02 35.199 5.805 16.193 5.827 31.343-4.824 40.919zm-82.99-33.474a183.529 183.529 0 01-6.826-8.046c-.801 5.54-1.183 10.654-1.16 15.292 4.713.416 9.802.512 15.162.29a184.062 184.062 0 01-7.177-7.536z" fill="#000"/></svg>