<svg width="193" height="241" fill="none" xmlns="http://www.w3.org/2000/svg"><path fill-rule="evenodd" clip-rule="evenodd" d="M119.652 240.656L0 220.077 23.913 15.843l38.659 5.415c11.416-33.56 63.599-24.99 63.983 8.962L193 39.525l-18.171 153.117-55.177 48.014zM87.455 39.396l3.412-14.174 21.127 2.96c-4.016-18.403-33.637-15.468-35.857 1.973-1.59 12.51-7.257 62.296-12.195 101.594-1.968 15.643 23.82 21.824 25.997 1.786.526-4.85 7.765-72.251 7.765-72.251l14.295 2.391s-6.256 68.111-6.698 73.205c-3.197 36.736-60.376 28.522-56.742-5.825C53.87 80.84 57.2 55.984 59.91 35.684l-24.09-3.247-19.052 175.385 90.498 16.588 7.145-52.203 47.629 7.109 14.291-127.94-88.876-11.98z" fill="#59F"/></svg>