<svg width="126" height="129" fill="none" xmlns="http://www.w3.org/2000/svg"><path fill-rule="evenodd" clip-rule="evenodd" d="M117.741 0L0 119.382l6.876 9.349 17.622-18.101c23.261 16.368 55.609 14.152 76.409-6.648 21.189-21.19 23.093-54.36 5.712-77.702L126 6.372 117.741 0zM92.476 95.551c-16.168 16.168-41.057 18.301-59.525 6.397l65.216-66.987c12.687 18.567 10.79 44.11-5.69 60.59zm.257-82.52l-8.64 8.64c-18.317-10.954-42.4-8.542-58.177 7.236-15.777 15.777-18.19 39.859-7.235 58.175l-8.64 8.64c-15.494-23.166-13.012-54.79 7.445-75.247C37.942.02 69.566-2.463 92.733 13.03z" fill="#fff"/></svg>